# xmcd CD database file
#
# Track frame offsets:
#	150
#	12544
#	22320
#	30370
#	40210
#	49649
#	58550
#	77059
#	82739
#	92781
#	102340
#	122672
#	129690
#	135020
#	148742
#	155205
#	164233
#	175068
#	188065
#	195858
#	201856
#	216775
#	220544
#	225760
#
# Disc length: 3123 seconds
#
# Revision: 11
# Processed by: cddbd v1.5.1PL2 Copyright (c) Steve Scherf et al.
# Submitted via: CDex 1.51
#
DISCID=400c3118
DTITLE=Glenn Gould - Bach - English Suites [CD1]
DYEAR=1971
DGENRE=Classical
TTITLE0=English Suite No.1 BWV806 I. Prelude
TTITLE1=English Suite No.1 BWV806 II. Allemande
TTITLE2=English Suite No.1 BWV806 III. Courante 1
TTITLE3=English Suite No.1 BWV806 IV. Courante 2
TTITLE4=English Suite No.1 BWV806 V. Double 1
TTITLE5=English Suite No.1 BWV806 VI. Double 2
TTITLE6=English Suite No.1 BWV806 VII. Sarabande
TTITLE7=English Suite No.1 BWV806 VIII. Bourree 1
TTITLE8=English Suite No.1 BWV806 IX. Bourree 2 Bourree 1 da Capo
TTITLE9=English Suite No.1 BWV806 X. Gigue
TTITLE10=English Suite No.2 BWV807 I. Prelude
TTITLE11=English Suite No.2 BWV807 II. Allemande
TTITLE12=English Suite No.2 BWV807 III. Courante
TTITLE13=English Suite No.2 BWV807 IV. Sarabande les Agrements de la Meme Sarabande
TTITLE14=English Suite No.2 BWV807 V. Bourree 1
TTITLE15=English Suite No.2 BWV807 VI. Bourree 2 Bourree 1 da Capo
TTITLE16=English Suite No.2 BWV807 VII.Gigue
TTITLE17=English Suite No.3 BWV808 I. Prelude
TTITLE18=English Suite No.3 BWV808 II. Allemande
TTITLE19=English Suite No.3 BWV808 III. Courante
TTITLE20=English Suite No.3 BWV808 IV. Sarabande les Agrements de la Meme Sarabande
TTITLE21=English Suite No.3 BWV808 V. Gavotte 1 ou la Musette
TTITLE22=English Suite No.3 BWV808 VI. Gavotte 2 Gavotte 1 da Capo
TTITLE23=English Suite No.3 BWV808 VII. Gigue
EXTD=Sony SM2K 52 606 ADD\nDisc 1 of 2\nGlenn Gould - pf\nRecorded at Eaton's Auditorium, Toronto, Canada\nSuite 1 A BWV806 - Mar 11 and Nov 4, 1973\nSuite 2 Am BWV807 - May 23, 1971\nSuite 3 Gm BWV808 - Jun 21 and 22, 1974\nSuite 4 F BWV809 - Dec 14 and 15, 1
EXTD=974, May 23 and 24, 1976\nSuite 5 Em BWV810 - Dec 14 and 15, 1974, May 23 and 24, 1976\nSuite 6 Dm BWV811 - Oct 10 and 11, 1975, May 24 and 24, 1976\n YEAR: 1971
EXTT0=
EXTT1=
EXTT2=
EXTT3=
EXTT4=
EXTT5=
EXTT6=
EXTT7=
EXTT8=
EXTT9=
EXTT10=
EXTT11=
EXTT12=
EXTT13=
EXTT14=
EXTT15=
EXTT16=
EXTT17=
EXTT18=
EXTT19=
EXTT20=
EXTT21=
EXTT22=
EXTT23=
PLAYORDER=
